<svg width="32" height="32" fill="none" viewBox="0 0 32 32" xmlns="http://www.w3.org/2000/svg"> 
    <g id="logo">
        <path d="m48 23.79c0 5.4369-1.8852 10.706-5.3343 14.908-3.4491 4.2027-8.2487 7.0795-13.581 8.1402s-10.868 0.2396-15.662-2.3233c-4.7949-2.5629-8.5528-6.7091-10.633-11.732-2.0806-5.023-2.3552-10.612-0.77693-15.815 1.5782-5.2028 4.9116-9.6973 9.4322-12.718 4.5206-3.0206 9.9486-4.3802 15.359-3.8473 5.4107 0.5329 10.469 2.9254 14.314 6.7698l-2.5685 2.5685c-3.2502-3.2502-7.5268-5.2729-12.101-5.7234-4.5744-0.45054-9.1634 0.69896-12.985 3.2526-3.8219 2.5537-6.64 6.3535-7.9743 10.752-1.3343 4.3985-1.1022 9.1237 0.65684 13.37 1.759 4.2466 4.9361 7.7519 8.9898 9.9187s8.7333 2.8609 13.242 1.9642c4.5081-0.8967 8.5659-3.3289 11.482-6.882 2.9159-3.5531 4.5097-8.0074 4.5097-12.604h3.6324z" fill="#fff"/> <path d="m16.016 39.096c-3.5411-1.9629-6.2921-5.0928-7.7842-8.8566-1.4921-3.7637-1.633-7.9284-0.39865-11.784s3.7674-7.1647 7.1678-9.3624c3.4003-2.1977 7.4575-3.1483 11.48-2.69s7.762 2.2973 10.581 5.2036c2.8188 2.9062 4.5428 6.7 4.878 10.735 0.3353 4.0348-0.7388 8.061-3.0393 11.393-2.3005 3.3316-5.685 5.7625-9.5769 6.8785l-0.7456-2.6002c3.2903-0.9435 6.1517-2.9986 8.0966-5.8153s2.853-6.2206 2.5695-9.6317c-0.2834-3.4112-1.7409-6.6185-4.124-9.0755-2.3831-2.4571-5.5444-4.0118-8.9453-4.3993s-6.831 0.41624-9.7057 2.2742c-2.8748 1.858-5.0164 4.6553-6.0599 7.9153-1.0435 3.2599-0.92441 6.7809 0.337 9.9629 1.2615 3.1819 3.5872 5.8281 6.581 7.4876l-1.3114 2.3658z" fill="#fff"/> <path d="m24.5 11.29c2.8919 0 5.6944 1.0028 7.9299 2.8374s3.7657 4.3876 4.3299 7.224 0.1275 5.7806-1.2358 8.3311c-1.3632 2.5505-3.5686 4.5493-6.2405 5.656-2.6718 1.1067-5.6446 1.2528-8.4121 0.4133-2.7674-0.8395-5.1581-2.6126-6.7648-5.0171-1.6066-2.4046-2.3299-5.2919-2.0464-8.1699s1.5561-5.5687 3.601-7.6136l1.3662 1.3662c-1.7288 1.7289-2.8047 4.0036-3.0444 6.4368-0.2396 2.4332 0.3718 4.8741 1.7301 6.907 1.3584 2.0329 3.3796 3.5319 5.7192 4.2417 2.3397 0.7097 4.853 0.5862 7.1119-0.3494 2.2588-0.9357 4.1233-2.6256 5.2758-4.7818 1.1526-2.1562 1.5218-4.6454 1.0448-7.0434-0.477-2.3979-1.7707-4.5563-3.6606-6.1073-1.89-1.5511-4.2593-2.3988-6.7042-2.3988v-1.9322z" fill="#fff"/> <path d="m17.03 19.734c0.9384-1.7282 2.4469-3.0776 4.2686-3.8183 1.8218-0.7406 3.8439-0.8267 5.722-0.2435 1.8781 0.5831 3.4958 1.7994 4.5776 3.4416 1.0819 1.6422 1.5608 3.6088 1.3552 5.5645-0.2055 1.9558-1.0829 3.7797-2.4825 5.1611s-3.2349 2.2348-5.1931 2.4148c-1.9583 0.1799-3.9184-0.3247-5.5463-1.4279-1.6279-1.1033-2.823-2.7368-3.3815-4.6223l1.3772-0.408c0.4642 1.5669 1.4573 2.9244 2.8101 3.8412s2.9817 1.3362 4.609 1.1866c1.6274-0.1495 3.1525-0.8587 4.3156-2.0066 1.1631-1.148 1.8922-2.6638 2.063-4.289 0.1709-1.6253-0.2271-3.2595-1.1261-4.6242s-2.2434-2.3755-3.8041-2.8601c-1.5608-0.4846-3.2412-0.4131-4.7551 0.2024s-2.7675 1.7369-3.5473 3.173l-1.2623-0.6853z" fill="#fff"/> <path d="m28.22 26.323c-0.586 0.8606-1.4522 1.4914-2.451 1.7849-0.9989 0.2935-2.0686 0.2316-3.027-0.1752-0.9583-0.4068-1.7459-1.1333-2.2287-2.0557-0.4827-0.9224-0.6307-1.9837-0.4187-3.003s0.7709-1.9335 1.5814-2.5869 1.8225-1.0056 2.8636-0.9965c1.041 0.0091 2.0467 0.3789 2.8457 1.0463 0.799 0.6675 1.3419 1.5913 1.536 2.6142l-0.8276 0.1571c-0.1578-0.8314-0.599-1.5823-1.2484-2.1248-0.6495-0.5425-1.4669-0.8431-2.3131-0.8505-0.8461-0.0073-1.6687 0.2789-2.3275 0.81s-1.113 1.2742-1.2853 2.1027c-0.1724 0.8284-0.0521 1.691 0.3403 2.4408 0.3923 0.7497 1.0325 1.3402 1.8115 1.6709 0.7789 0.3306 1.6484 0.3809 2.4603 0.1424 0.8119-0.2386 1.5159-0.7513 1.9922-1.4508l0.6963 0.4741z" fill="#fff"/> <path d="m23.707 21.419c0.5485-0.1835 1.1436-0.1712 1.6841 0.0349 0.5404 0.2061 0.9926 0.5932 1.2796 1.0954 0.287 0.5021 0.391 1.0883 0.2943 1.6585-0.0967 0.5703-0.3881 1.0893-0.8246 1.4688s-0.9911 0.5958-1.5693 0.6122c-0.5781 0.0164-1.1441-0.1681-1.6014-0.5222s-0.7777-0.8559-0.9066-1.4197c-0.1289-0.5639-0.0583-1.1549 0.1998-1.6726l0.8767 0.4372c-0.1569 0.3147-0.1999 0.6742-0.1215 1.0171s0.2732 0.648 0.5514 0.8633c0.2781 0.2154 0.6223 0.3276 0.9738 0.3177 0.3516-0.01 0.6889-0.1416 0.9544-0.3724 0.2654-0.2307 0.4427-0.5464 0.5015-0.8932s-0.0045-0.7032-0.179-1.0086c-0.1746-0.3054-0.4496-0.5408-0.7782-0.6661-0.3287-0.1253-0.6906-0.1328-1.0242-0.0212l-0.3108-0.9291z" fill="#fff"/> <circle transform="rotate(180 24.5 23.79)" cx="24.5" cy="23.79" r=".5" fill="#fff"/>
    </g>

    <!-- Social -->
   
    <g id="github">
        <path d="m16 1c-8.4717 0-15.333 6.8617-15.333 15.333 0 6.785 4.3892 12.516 10.484 14.548 0.7667 0.1342 1.0542-0.3258 1.0542-0.7283 0-0.3642-0.0192-1.5717-0.0192-2.8558-3.8525 0.7091-4.8492-0.9392-5.1558-1.8017-0.1725-0.4408-0.92-1.8017-1.5717-2.1658-0.53667-0.2875-1.3033-0.9967-0.01917-1.0159 1.2075-0.0191 2.07 1.1117 2.3575 1.5717 1.38 2.3192 3.5842 1.6675 4.4658 1.265 0.1341-0.9967 0.5366-1.6675 0.9775-2.0508-3.4117-0.3834-6.9767-1.7059-6.9767-7.5709 0-1.6675 0.59416-3.0475 1.5717-4.1208-0.15333-0.3833-0.69-1.955 0.15333-4.0633 0 0 1.2842-0.4025 4.2167 1.5717 1.2266-0.345 2.53-0.5175 3.8333-0.5175s2.6067 0.1725 3.8333 0.5175c2.9325-1.9933 4.2167-1.5717 4.2167-1.5717 0.8433 2.1083 0.3067 3.68 0.1533 4.0633 0.9775 1.0733 1.5717 2.4342 1.5717 4.1208 0 5.8842-3.5842 7.1875-6.9958 7.5709 0.5558 0.4791 1.035 1.3991 1.035 2.8366 0 2.0509-0.0192 3.6992-0.0192 4.2167 0 0.4025 0.2875 0.8817 1.0542 0.7283 6.0567-2.0316 10.446-7.7816 10.446-14.548 0-8.4716-6.8617-15.333-15.333-15.333z" clip-rule="evenodd" fill="#fff" fill-rule="evenodd"/>
    </g>

    <g id="telegram">
        <path d="m32.159 0.34097-31.008 12.24c-1.2478 0.57-1.6699 1.7115-0.3016 2.331l7.955 2.5877 19.234-12.168c1.0502-0.76387 2.1254-0.56018 1.2002 0.28013l-16.52 15.31-0.5189 6.4793c0.4806 1.0004 1.3607 1.0051 1.922 0.5078l4.5704-4.4266 7.8275 5.9998c1.818 1.1017 2.8072 0.3907 3.1984-1.6286l5.1341-24.885c0.5331-2.4856-0.376-3.5807-2.6934-2.6284z" fill="#fff"/>
    </g>

    <g id="linkedin">
        <rect width="32" height="32" rx="3" fill="#fff"/> 
        <path d="m6.3333 2.5c-1.5648 0-2.8333 1.2685-2.8333 2.8333 0 1.5648 1.2685 2.8333 2.8333 2.8333 1.5648 0 2.8333-1.2685 2.8333-2.8333 0-1.5648-1.2685-2.8333-2.8333-2.8333z" fill="#000"/> <path d="M3.66667 10.5C3.57462 10.5 3.5 10.5746 3.5 10.6667V28C3.5 28.092 3.57462 28.1667 3.66667 28.1667H9C9.09205 28.1667 9.16667 28.092 9.16667 28V10.6667C9.16667 10.5746 9.09205 10.5 9 10.5H3.66667Z" fill="#000"/> <path d="m12.333 10.5c-0.092 0-0.1666 0.0746-0.1666 0.1667v17.333c0 0.092 0.0746 0.1667 0.1666 0.1667h5.3334c0.092 0 0.1666-0.0747 0.1666-0.1667v-9.3333c0-0.6631 0.2634-1.299 0.7323-1.7678 0.4688-0.4688 1.1047-0.7322 1.7677-0.7322 0.6631 0 1.299 0.2634 1.7678 0.7322s0.7322 1.1047 0.7322 1.7678v9.3333c0 0.092 0.0747 0.1667 0.1667 0.1667h5.3333c0.0921 0 0.1667-0.0747 0.1667-0.1667v-11.493c0-3.2357-2.8141-5.767-6.0335-5.4743-0.9929 0.0902-1.9746 0.337-2.8912 0.7299l-1.742 0.7465v-1.8424c0-0.0921-0.0746-0.1667-0.1666-0.1667h-5.3334z" fill="#000"/>
    </g>

    <!-- Skills -->

    <g id="js">
        <path d="M0.5 0.5H105.5V105.5H0.5V0.5Z" fill="#F5DE19"/>
        <path d="M71.0337 82.5312C71.9284 84.3485 73.3183 85.8759 75.0434 86.9375C76.7684 87.9991 78.7583 88.5515 80.7837 88.5313C84.8712 88.5313 87.485 86.4875 87.485 83.6562C87.485 80.2812 84.8 79.0738 80.3 77.105L77.8325 76.0475C70.7075 73.0138 65.9825 69.215 65.9825 61.1825C65.9825 53.7838 71.6075 48.1475 80.4312 48.1475C83.2876 47.9412 86.1415 48.5805 88.637 49.9856C91.1324 51.3907 93.1589 53.4994 94.4637 56.0488L86.75 60.98C86.2476 59.716 85.3728 58.6345 84.2416 57.879C83.1104 57.1236 81.7763 56.7298 80.4162 56.75C79.8228 56.6906 79.2236 56.7555 78.6566 56.9404C78.0897 57.1254 77.5675 57.4265 77.1233 57.8244C76.6792 58.2224 76.3228 58.7085 76.0768 59.2518C75.8309 59.7951 75.7009 60.3837 75.695 60.98C75.695 63.9388 77.5287 65.1388 81.7625 66.98L84.23 68.0375C92.615 71.6338 97.355 75.2975 97.355 83.5363C97.355 92.42 90.3762 97.2875 81.005 97.2875C77.3536 97.5201 73.713 96.6912 70.5223 94.9005C67.3317 93.1099 64.7274 90.4342 63.0237 87.1963L71.0337 82.5312ZM36.1775 83.3863C37.7262 86.135 39.1362 88.46 42.5262 88.46C45.7662 88.46 47.8137 87.1925 47.8137 82.2612V48.71H57.68V82.3925C57.68 92.6075 51.68 97.2575 42.9462 97.2575C39.8591 97.4263 36.7931 96.6569 34.1513 95.0506C31.5096 93.4442 29.4157 91.0761 28.145 88.2575L36.1775 83.3863Z" fill="black"/>
    </g>

    <g id="ts">
        <path d="M0 52.5V105H52.5H105V52.5V0H52.5H0V52.5Z" fill="#007ACC"/>
        <path d="M23.2202 52.8481L23.1869 57.1481H30.0202L36.8536 57.1481V76.5648V95.9814H41.6869H46.5202V76.5648L46.5202 57.1481H53.3536H60.1869V52.9314C60.1869 50.5981 60.1369 48.6481 60.0702 48.5981C60.0202 48.5314 51.7036 48.4981 41.6202 48.5148L23.2702 48.5648L23.2202 52.8481Z" fill="white"/>
        <path d="M84.7232 48.4431C87.3898 49.1098 89.4232 50.2931 91.2898 52.2265C92.2565 53.2598 93.6898 55.1431 93.8065 55.5931C93.8398 55.7265 89.2732 58.7931 86.5065 60.5098C86.4065 60.5765 86.0065 60.1431 85.5565 59.4765C84.2065 57.5098 82.7898 56.6598 80.6232 56.5098C77.4398 56.2931 75.3898 57.9598 75.4065 60.7431C75.4065 61.5598 75.5232 62.0431 75.8565 62.7098C76.5565 64.1598 77.8565 65.0265 81.9398 66.7931C89.4565 70.0265 92.6732 72.1598 94.6732 75.1931C96.9065 78.5765 97.4065 83.9765 95.8898 87.9931C94.2232 92.3598 90.0898 95.3265 84.2732 96.3098C82.4732 96.6265 78.2065 96.5765 76.2732 96.2265C72.0565 95.4765 68.0565 93.3931 65.5898 90.6598C64.6232 89.5931 62.7398 86.8098 62.8565 86.6098C62.9065 86.5431 63.3398 86.2765 63.8232 85.9931C64.2898 85.7265 66.0565 84.7098 67.7232 83.7431L70.7398 81.9931L71.3732 82.9265C72.2565 84.2765 74.1898 86.1265 75.3565 86.7431C78.7065 88.5098 83.3065 88.2598 85.5732 86.2265C86.5398 85.3431 86.9398 84.4265 86.9398 83.0765C86.9398 81.8598 86.7898 81.3265 86.1565 80.4098C85.3398 79.2431 83.6732 78.2598 78.9398 76.2098C73.5232 73.8765 71.1898 72.4265 69.0565 70.1265C67.8232 68.7931 66.6565 66.6598 66.1732 64.8765C65.7732 63.3931 65.6732 59.6765 65.9898 58.1765C67.1065 52.9431 71.0565 49.2931 76.7565 48.2098C78.6065 47.8598 82.9065 47.9931 84.7232 48.4431Z" fill="white"/>  
    </g>
</svg>